<svg xmlns="http://www.w3.org/2000/svg" viewBox="0 0 24 24" fill="none"><path fill="#1DB954" d="M12 1.5C6.2 1.5 1.5 6.2 1.5 12S6.2 22.5 12 22.5 22.5 17.8 22.5 12 17.8 1.5 12 1.5Zm4.68 15.45c-.19.31-.6.4-.91.21-2.49-1.53-5.63-1.88-9.33-1.05-.36.08-.72-.15-.8-.51a.67.67 0 0 1 .51-.81c4.05-.9 7.51-.5 10.19 1.14.31.19.41.6.22.91Zm1.29-2.88c-.24.38-.74.5-1.12.26-2.82-1.72-7.12-2.22-10.45-1.24-.43.12-.88-.12-1-.55a.81.81 0 0 1 .55-1c3.77-1.06 8.49-.51 11.72 1.42.38.24.49.74.26 1.11Zm.11-3.02c-3.24-1.9-8.58-2.08-11.69-1.2-.5.14-1.01-.15-1.15-.65a.92.92 0 0 1 .65-1.14c3.57-.98 9.42-.78 13.13 1.37.45.26.6.84.34 1.3a.95.95 0 0 1-1.28.32Z"/></svg>
